<svg xmlns="http://www.w3.org/2000/svg" enable-background="new 0 0 68 68" viewBox="0 0 68 68" id="Waiter"><path d="M45.275 5.9226c-5.3814-7.7024-19.9649-6.165-24.59 3.3-1.95 3.99-1.75 8.86.58 14.46.47 4.3 2.38 8.86 5.02 11.94 2.3199 2.71 4.99 4.14 7.72 4.14s5.39-1.43 7.71-4.14c2.63-3.08 4.48-7.45 5-11.74C47.505 22.2125 51.765 12.4526 45.275 5.9226zM44.685 23.9625c-.4938 3.5701-2.07 7.5154-4.49 10.36-1.34 1.57-3.51 3.44-6.19 3.44-2.69 0-4.86-1.87-6.2-3.44-2.27-2.66-3.96-6.54-4.49-10.28.2042-.476.0715-5.7957.67-7.38 8.6513 4.8037 16.43-9.2488 19.53-1.19.01.01.01.03.02.04.75 1.97 1.56 4.96 1.14 8.1C44.655 23.7326 44.665 23.8526 44.685 23.9625zM45.8044 42.6914L34.8439 59.9299c-.3672.5771-1.3203.5771-1.6875 0L22.1946 42.6893c-1.1835.4788-2.8033 1.0859-4.2195 1.6133-.5993.225-1.2017.4512-1.7954.6757-.4017.191-.8097.3837-1.1912.5688 2.0376 4.3643 3.1519 9.8979 3.1519 15.7168 0 1.9517-.1321 3.8687-.3796 5.7287h32.4785c-.2471-1.8586-.3792-3.7755-.3792-5.7287 0-5.8188 1.1143-11.3525 3.1519-15.7168-.3811-.185-.7887-.3775-1.19-.5683-.5942-.2246-1.1971-.451-1.7969-.6762C48.6066 43.7744 46.9842 43.1663 45.8044 42.6914z" fill="#fe6ea8" class="color000000 svgShape"></path><path d="M42.045 38.1926c-2.43 2.34-5.19 3.57-8.04 3.57s-5.61-1.23-8.04-3.57c-.25 1.16-.8 2.47-1.98 3.58l10.02 15.76 10.01-15.75C42.835 40.6626 42.285 39.3526 42.045 38.1926zM39.165 47.2226c-.99.67-3.8199-.99-5.16-1.86-1.35.87-4.18 2.53-5.16 1.86-.98-.66-.98-4.03 0-4.69.98-.67 3.81.98 5.16 1.85 1.34-.87 4.17-2.52 5.16-1.85C40.135 43.1926 40.135 46.5626 39.165 47.2226zM57.055 47.1026c-.5649-.2716-1.2933-.582-2.116-.9145-1.9819 4.1323-3.0789 9.443-3.0789 15.0758 0 1.9581.1371 3.876.3964 5.7287h7.8786c.55 0 1-.45 1-1v-12.4C61.135 50.8326 59.535 48.2826 57.055 47.1026zM16.1403 61.2639c0-5.6329-1.097-10.9435-3.079-15.0759-.8229.3325-1.5513.6429-2.1163.9146-2.48 1.18-4.08 3.73-4.08 6.49v12.4c0 .55.45 1 1 1h7.881C16.0052 65.1386 16.1403 63.2197 16.1403 61.2639zM26.8158 22.4551c0 1.1135.9027 2.0161 2.0161 2.0161 1.1135 0 2.0162-.9027 2.0162-2.0161C30.8481 19.7895 26.8158 19.7858 26.8158 22.4551z" fill="#fe6ea8" class="color000000 svgShape"></path><circle cx="39.168" cy="22.455" r="2.016" fill="#fe6ea8" class="color000000 svgShape"></circle><path d="M36.5002,29.8923h-5c-0.5522,0-1,0.4478-1,1s0.4478,1,1,1h5c0.5522,0,1-0.4478,1-1S37.0524,29.8923,36.5002,29.8923z" fill="#fe6ea8" class="color000000 svgShape"></path></svg>