<svg xmlns="http://www.w3.org/2000/svg" viewBox="0 0 64 64" id="Malenurse"><path fill="#fe6ea8" d="M50 48a97.05 97.05 0 0 0-10-5c-1-1-3-3-3-5H27c0 2-2 4-3 5 0 0-7.21 3-10 4.89a15.61 15.61 0 0 0-5.14 5.67A15.81 15.81 0 0 0 7 61h50a15.64 15.64 0 0 0-7-13Z" class="colorffd5c5 svgShape"></path><path fill="#fde4ee" d="M57 61H7a15.81 15.81 0 0 1 1.86-7.44A15.61 15.61 0 0 1 14 47.89C16.79 46 24 43 24 43a11.94 11.94 0 0 0 1.7 5h12.6a11.94 11.94 0 0 0 1.7-5 97.05 97.05 0 0 1 10 5 15.64 15.64 0 0 1 7 13Z" class="colore4f4fd svgShape"></path><path fill="#fe6ea8" d="M50 48a97.05 97.05 0 0 0-10-5c0 2.76-3.58 10-8 10s-8-7.24-8-10c0 0-7.21 3-10 4.89a15.61 15.61 0 0 0-5.14 5.67A15.81 15.81 0 0 0 7 61h50a15.64 15.64 0 0 0-7-13Z" class="color00a99d svgShape"></path><path fill="#fe6ea8" d="M25.6 41.24a14.76 14.76 0 0 0 12.8 0A5.67 5.67 0 0 1 37 38H27a5.67 5.67 0 0 1-1.4 3.24Z" class="colorf4a490 svgShape"></path><path fill="#ffc5dc" d="M21 17v14.5c0 5 4.92 9.2 11 9.2s11-4.15 11-9.2V17Z" class="colorffd5c5 svgShape"></path><path fill="#fe6ea8" d="M43 31.14a4 4 0 0 0 0-8zM21 31a4 4 0 0 1 0-8z" class="colorf4a490 svgShape"></path><path fill="#fe6ea8" d="M32 5.14a20.78 20.78 0 0 0-2.88.2C22.21 6.33 17 10.81 17 16.18v11l11-7s11 7 19 7v-11c0-6.1-6.72-11.04-15-11.04Z" class="color1d252d svgShape"></path><path fill="#fe6ea8" d="M17 7.66v7.68a2.15 2.15 0 0 0 1.3 2 36.6 36.6 0 0 0 27.41 0 2.11 2.11 0 0 0 1.29-2V7.65a2.11 2.11 0 0 0-1.29-2 36.6 36.6 0 0 0-27.41 0A2.15 2.15 0 0 0 17 7.66Z" class="color00a99d svgShape"></path><path fill="#ffffff" d="M35.5 9.5H34V8a2 2 0 0 0-2-2 2 2 0 0 0-2 2v1.5h-1.5a2 2 0 0 0-2 2 2 2 0 0 0 2 2H30V15a2 2 0 0 0 2 2 2 2 0 0 0 2-2v-1.5h1.5a2 2 0 0 0 2-2 2 2 0 0 0-2-2Z" class="colore13332 svgShape"></path><path fill="#fe6ea8" d="M37.07 31.35A4 4 0 0 0 39.82 30a1 1 0 0 0-1.57-1.25 1.73 1.73 0 0 1-1.12.61 1.92 1.92 0 0 1-1.37-.69 1 1 0 1 0-1.41 1.41 4 4 0 0 0 2.72 1.27zM29.73 30a1 1 0 0 0-1.56-1.25 1.81 1.81 0 0 1-1.13.61 2 2 0 0 1-1.36-.69 1 1 0 0 0-1.42 0 1 1 0 0 0 0 1.41A4 4 0 0 0 27 31.35 4 4 0 0 0 29.73 30zm4.97 5.41A1 1 0 0 0 33.3 34a1.75 1.75 0 0 1-2.59 0 1 1 0 1 0-1.42 1.41 3.77 3.77 0 0 0 5.41 0z" class="colorf4a490 svgShape"></path><path fill="#8b0038" d="M17 61v-4a1 1 0 0 0-2 0v4zm32 0v-4a1 1 0 0 0-2 0v4z" class="color008b81 svgShape"></path><circle cx="39" cy="54" r="1" fill="#fe6ea8" class="colore4f4fd svgShape"></circle><path fill="#fe6ea8" d="M48 53h-5a1 1 0 0 0 0 2h5a1 1 0 0 0 0-2Z" class="colore4f4fd svgShape"></path></svg>