<svg xmlns="http://www.w3.org/2000/svg" enable-background="new 0 0 128 128" viewBox="0 0 128 128" id="Healthcare"><path fill="#fe6ea8" d="M62.1600342,67.0300293L66.3099976,71l-21.3999634-0.0400391
		c-0.0500488,0-0.1000366-0.0100098-0.1500244-0.0100098c-6.9400024-0.0600586-13.3699951-2.8999023-18.0999756-7.9899902
		c-4.710022-5.0700684-7.0599976-11.6899414-6.6100464-18.6400146
		c0.8000488-12.4799805,10.8400269-22.4899902,23.3400269-23.2698975
		c6.9899902-0.4301758,13.6400146,1.9599609,18.7299805,6.7299805c5.0800171,4.7799072,7.8699951,11.2399902,7.8699951,18.1999512
		c0,6.9299316-2.7799683,13.3800049-7.8299561,18.1499023c-0.4000244,0.380127-0.6199951,0.9001465-0.6199951,1.4500732
		C61.5300293,66.1298828,61.7600098,66.6499023,62.1600342,67.0300293z" class="colorfe615a svgShape"></path><path fill="#44202e" d="M66.3900146,65.5800781c4.9199829-5.3500977,7.5999756-12.2200928,7.5999756-19.5600586
		c0-7.9599609-3.3299561-15.6600342-9.1300049-21.1101074C58.960022,19.3699951,51.25,16.5999756,43.1400146,17.0999756
		c-14.5100098,0.9100342-26.1500244,12.5200195-27.0800171,27.0100098
		c-0.5199585,8.0499268,2.2000122,15.7301025,7.6700439,21.6199951C29.1000366,71.5,36.6799927,74.8800049,44.5599976,74.9899902
		C44.6199951,75,44.6799927,75,44.7399902,75l26.5700073,1h0.0100098c0.8099976-0.9599609,1.5499878-1.4499512,1.8500366-2.2099609
		c0.3099976-0.7600098,0.1199951-1.630127-0.4700317-2.1900635L66.3900146,65.5800781z M44.9100342,70.9599609
		c-0.0500488,0-0.1000366-0.0100098-0.1500244-0.0100098c-6.9400024-0.0600586-13.3699951-2.8999023-18.0999756-7.9899902
		c-4.710022-5.0700684-7.0599976-11.6899414-6.6100464-18.6400146
		c0.8000488-12.4799805,10.8400269-22.4899902,23.3400269-23.2698975
		c6.9899902-0.4301758,13.6400146,1.9599609,18.7299805,6.7299805c5.0800171,4.7799072,7.8699951,11.2399902,7.8699951,18.1999512
		c0,6.9299316-2.7799683,13.3800049-7.8299561,18.1499023c-0.4000244,0.380127-0.6199951,0.9001465-0.6199951,1.4500732
		c-0.0100098,0.5499268,0.2199707,1.0699463,0.6199951,1.4500732L66.3099976,71L44.9100342,70.9599609z" class="color203344 svgShape"></path><path fill="#44202e" d="M55 44h-8v-8c0-1.1044922-.8955078-2-2-2s-2 .8955078-2 2v8h-8c-1.1044922 0-2 .8955078-2 2s.8955078 2 2 2h8v8c0 1.1044922.8955078 2 2 2s2-.8955078 2-2v-8h8c1.1044922 0 2-.8955078 2-2S56.1044922 44 55 44zM71.0625 110.5161133c-3.0439453 0-6.0297852-1.1357422-9.1328125-3.3085938l0 0c-9.8457031-6.894043-7.2182617-13.4716797-3.3496094-18.996582 4.6323242-6.6152344 10.015625-7.7705078 16.4414062-3.5180664 3.2895508-1.6889648 12.7856445-15.25 13.2475586-18.9189453-3.2954102-2.4384766-5.019043-5.0952148-5.2641602-8.1074219-.2124023-2.6157227.7514648-5.4111328 2.9462891-8.5454102 1.8017578-2.5737305 4.0893555-5.3427734 7.3916016-6.3676758 3.4013672-1.0561523 7.1977539-.0683594 11.6049805 3.0180664 10.9765625 7.6855469 9.2236328 18.4697266-6.699707 41.2104492C86.8881836 103.2060547 78.7866211 110.5161133 71.0625 110.5161133zM64.2236328 103.9311523c6.3417969 4.4394531 13.0317383 6.0585938 30.7480469-19.2431641 17.8222656-25.453125 14.0234375-31.199707 7.6821289-35.6401367-3.3266602-2.3291016-5.9824219-3.1367188-8.1254883-2.4746094-1.7109375.53125-3.2963867 1.9790039-5.3007812 4.8417969-1.6381836 2.340332-2.3696289 4.2788086-2.2358398 5.9277344.1547852 1.9003906 1.4873047 3.7050781 4.0742188 5.5166016.5141602.3598633 1.3530273 1.2290039 1.1977539 3.0068359-.453125 5.1791992-11.078125 20.3525391-15.7895508 22.5493164-1.6157227.7539062-2.7207031.2631836-3.2348633-.097168-4.8178711-3.3735352-7.9033203-2.7807617-11.3828125 2.1865234C58.1894531 95.7421875 57.5498047 99.2573242 64.2236328 103.9311523L64.2236328 103.9311523z" class="color203344 svgShape"></path></svg>