<svg xmlns="http://www.w3.org/2000/svg" viewBox="0 0 32 32" id="Patient"><g data-name="1" fill="#fe6ea8" class="color000000 svgShape"><path d="M26,19H13a1,1,0,0,0-1,1v4H4V14a1,1,0,0,0-2,0V29a1,1,0,0,0,2,0V26H28v3a1,1,0,0,0,2,0V23A4.0042,4.0042,0,0,0,26,19Z" fill="#fe6ea8" class="color000000 svgShape"></path><circle cx="8" cy="21" r="3" fill="#fe6ea8" class="color000000 svgShape"></circle><path d="M16,6a1,1,0,0,0-1,1V9H13a1,1,0,0,0,0,2h2v2a1,1,0,0,0,2,0V11h2a1,1,0,0,0,0-2H17V7A1,1,0,0,0,16,6Z" fill="#fe6ea8" class="color000000 svgShape"></path></g></svg>