<svg xmlns="http://www.w3.org/2000/svg" viewBox="0 0 32 32" id="24HoursSupport"><g data-name="Layer 2" fill="#fe6ea8" class="color000000 svgShape"><path d="M14.778 29.949a7.153 7.153 0 0 0 9.9 0l2.828-2.828a3 3 0 0 0 0-4.242l-4.243-4.243a3 3 0 0 0-4.242 0l-1.415 1.415a1 1 0 0 1-1.414 0L11.95 15.808a1 1 0 0 1 0-1.414l1.414-1.415a3 3 0 0 0 0-4.243L9.122 4.494a3.073 3.073 0 0 0-4.243 0L2.05 7.322a7.082 7.082 0 0 0 0 9.9zM3.464 8.736L6.293 5.908a1.023 1.023 0 0 1 1.414 0L11.95 10.15a1.011 1.011 0 0 1 0 1.415l-1.414 1.414a3 3 0 0 0 0 4.243l4.242 4.243a3 3 0 0 0 4.243 0l1.414-1.415a1 1 0 0 1 1.414 0l4.243 4.243a1 1 0 0 1 0 1.414l-2.828 2.828a5.046 5.046 0 0 1-7.072 0L3.464 15.808A5.049 5.049 0 0 1 3.464 8.736zM21 2a3 3 0 0 0-3 3 1 1 0 0 0 2 0 1 1 0 0 1 2 0c0 1.941-2.49 3.622-3.449 4.106A1 1 0 0 0 19 11h4a1 1 0 0 0 0-2h-.938A5.728 5.728 0 0 0 24 5 3 3 0 0 0 21 2zM31 10.968a1 1 0 0 0 1-1V3a1 1 0 0 0-2 0V6H29a1 1 0 0 1-1-1V3a1 1 0 0 0-2 0V5a3 3 0 0 0 3 3h1V9.968A1 1 0 0 0 31 10.968z" fill="#fe6ea8" class="color000000 svgShape"></path></g></svg>