<svg xmlns="http://www.w3.org/2000/svg" data-name="Layer 1" viewBox="0 0 512 512" id="Time"><path d="M405.059,256A122.808,122.808,0,1,0,282.252,378.808,122.947,122.947,0,0,0,405.059,256Zm-229.615,0A106.808,106.808,0,1,1,282.252,362.808,106.929,106.929,0,0,1,175.444,256Z" fill="#fe6ea8" class="color000000 svgShape"></path><path d="M334.932,266a8,8,0,0,0-8-8H284V198.556a8,8,0,0,0-16,0v67.021C268,270,271.451,274,275.869,274h51.063A8,8,0,0,0,334.932,266Z" fill="#fe6ea8" class="color000000 svgShape"></path><path d="M282.252,40.389A215.727,215.727,0,0,0,69.835,219h-47.7a7.943,7.943,0,0,0-6.69,12.316l58.275,88.842a8,8,0,0,0,13.379-.009l58.274-88.856A7.931,7.931,0,0,0,138.687,219h-52.6A199.7,199.7,0,0,1,282.252,56.413c110.065,0,199.61,89.533,199.61,199.6s-89.545,199.605-199.61,199.605a8,8,0,1,0,0,16A215.612,215.612,0,0,0,434.712,103.54,214.2,214.2,0,0,0,282.252,40.389ZM80.412,301.267,36.951,235h86.922Z" fill="#fe6ea8" class="color000000 svgShape"></path></svg>