<svg xmlns="http://www.w3.org/2000/svg" viewBox="0 0 600 600" id="CovidVaccination"><path fill="#ffffff" d="M451.2 160.8 416.9 141c-1.1-.6-2.5-.3-3.1.8L370 217.7c-.6 1.1-.3 2.5.8 3.1l34.3 19.8c1.1.6 2.5.3 3.1-.8l43.8-75.9c.7-1.1.3-2.5-.8-3.1z" class="colorffffff svgShape"></path><path fill="#ff9fc6" d="m445.6 175.1-23.8-13.7c-3.1-1.8-7.1-.7-9 2.5l-49 84.8c-1.8 3.2-.8 7.2 2.3 9l23.8 13.7 55.7-96.3z" class="color9ffdff svgShape"></path><path fill="none" stroke="#000000" stroke-linecap="round" stroke-linejoin="round" stroke-miterlimit="10" stroke-width="10" d="m387.9 270.4-34.3-19.8c-1.1-.6-1.5-2-.8-3.1l61-105.7c.6-1.1 2-1.5 3.1-.8l34.3 19.8c1.1.6 1.5 2 .8 3.1l-61 105.7c-.6 1.1-2 1.5-3.1.8zM340.5 243.1l60.4 34.9M407.1 153.4l38.2 22" class="colorStroke000000 svgStroke"></path><g fill="none" stroke="#000000" stroke-linecap="round" stroke-linejoin="round" stroke-miterlimit="10" stroke-width="10" class="colorStroke000000 svgStroke"><path d="m424.8 165.8-69 120.3M339.9 276.9l32.1 18.5" fill="#000000" class="color000000 svgShape"></path></g><path fill="none" stroke="#000000" stroke-linecap="round" stroke-linejoin="round" stroke-miterlimit="10" stroke-width="10" d="m441 138.8 17.8-30.7" class="colorStroke000000 svgStroke"></path><path fill="#ffffff" d="m444.5 142.5-8.8-5.1c-1.8-1-4-.4-5 1.3l-4.2 7.3 15.1 8.7 4.2-7.3c1.1-1.6.5-3.9-1.3-4.9z" class="colorffffff svgShape"></path><path fill="#ff9fc6" d="m441.7 154.9 3.4-6-6.5-3.7c-1.8-1-4-.4-5 1.3l-1.6 2.8 9.7 5.6z" class="color9ffdff svgShape"></path><path fill="none" stroke="#000000" stroke-linecap="round" stroke-linejoin="round" stroke-miterlimit="10" stroke-width="10" d="m441.7 154.9-15.1-8.7 2.6-4.4c1.9-3.3 6.2-4.5 9.6-2.6l3 1.7c3.3 1.9 4.5 6.2 2.6 9.6l-2.7 4.4z" class="colorStroke000000 svgStroke"></path><g stroke="#000000" stroke-linecap="round" stroke-linejoin="round" stroke-miterlimit="10" stroke-width="10" class="colorStroke000000 svgStroke"><circle cx="263.9" cy="190.7" r="47" fill="#ff1c77" class="colorffaf1c svgShape"></circle><path fill="none" d="m285.8 178.4-25.3 25.3M245.5 188.4l15.3 15.3"></path></g><path fill="#fe6ea8" d="M452.9 326.3h-2.4c-3.3 0-6.4 1.1-9 3.2L375.8 384c-1.5 1.2-3.3 1.8-5.2 1.8h-57.2c-4.5 0-8.2-3.7-8.2-8.2 0-4.5 3.7-8.2 8.2-8.2h46.2c5.9 0 11-4.8 11-10.6 0-4.7-3-8.7-7.5-10.1l-58-17.4c-6.1-1.8-12.4-2.8-18.8-2.8h-2c-11.6 0-23 3.1-32.9 8.9l-76.8 44.8V469l77.3-49.2c1.3-.8 2.8-1.3 4.4-1.3H384l78-67.3c3.2-2.7 5-6.6 5-10.8.1-7.8-6.3-14.1-14.1-14.1z" class="colorffd485 svgShape"></path><path fill="#ff1c77" d="M462.9 341.3h-2.4c-3.3 0-6.4 1.1-9 3.2L385.8 399c-1.5 1.2-3.3 1.8-5.2 1.8h-57.2c-4.5 0-8.2-3.7-8.2-8.2 0-2.9 1.5-5.4 3.7-6.8h-5.5c-4.5 0-8.2-3.7-8.2-8.2 0-4.5 3.7-8.2 8.2-8.2h46.2c4.5 0 8.5-2.8 10.2-6.7l-54.7-16.4c-6.1-1.8-12.4-2.8-18.8-2.8h-2c-11.6 0-23 3.1-32.9 8.9l-76.8 44.8v65.3l67.3-42.8c1.3-.8 2.8-1.3 4.4-1.3H384l78-67.3c2.8-2.4 4.6-5.7 4.9-9.4-1.2-.2-2.6-.4-4-.4z" class="colorffaf1c svgShape"></path><path fill="none" stroke="#000000" stroke-linecap="round" stroke-linejoin="round" stroke-miterlimit="10" stroke-width="10" d="M467.1 340.4c0 4.2-1.8 8.1-5 10.8l-78 67.3H256.3c-1.6 0-3.1.4-4.4 1.3L174.6 469v-86.6l76.8-44.8c10-5.8 21.4-8.9 32.9-8.9h2c6.4 0 12.7.9 18.8 2.8l58 17.4c4.5 1.3 7.5 5.4 7.5 10.1 0 5.9-5.1 10.6-11 10.6h-46.2c-4.5 0-8.2 3.7-8.2 8.2v0c0 4.5 3.7 8.2 8.2 8.2h57.2c1.9 0 3.7-.7 5.2-1.8l65.7-54.5c2.5-2.1 5.7-3.2 9-3.2h2.4c7.8-.2 14.2 6.1 14.2 13.9h0z" class="colorStroke000000 svgStroke"></path><path fill="#ffffff" d="M168.4 366.6h-26c-3.9 0-7 3.1-7 7v110c0 3.9 3.1 7 7 7h26c3.9 0 7-3.1 7-7v-110c0-3.9-3.1-7-7-7z" class="colorffffff svgShape"></path><path fill="#ff9fc6" d="M162.4 380.6c-3.9 0-7 3.1-7 7v103h13c3.9 0 7-3.1 7-7v-103h-13z" class="color9ffdff svgShape"></path><path fill="none" stroke="#000000" stroke-linecap="round" stroke-linejoin="round" stroke-miterlimit="10" stroke-width="10" d="M168.4 490.6h-26c-3.9 0-7-3.1-7-7v-110c0-3.9 3.1-7 7-7h26c3.9 0 7 3.1 7 7v110c0 3.9-3.1 7-7 7z" class="colorStroke000000 svgStroke"></path></svg>